<svg width="73" height="39" viewBox="0 0 73 39" fill="none" xmlns="http://www.w3.org/2000/svg">
<g filter="url(#filter0_d_30_696)">
<path d="M4 8C4 3.58172 7.58172 0 12 0H61C65.4183 0 69 3.58172 69 8V23C69 27.4183 65.4183 31 61 31H12C7.58172 31 4 27.4183 4 23V8Z" fill="white"/>
<g clip-path="url(#clip0_30_696)">
<path d="M41.1864 3C39.8536 3.09219 38.2958 3.94531 37.388 5.05624C36.5599 6.06404 35.8786 7.56091 36.1443 9.01559C37.6005 9.0609 39.1052 8.18747 39.977 7.05779C40.7927 6.00623 41.4098 4.51874 41.1864 3Z" fill="black"/>
<path d="M46.4535 11.3874C45.1739 9.78275 43.3754 8.8515 41.677 8.8515C39.4348 8.8515 38.4864 9.92493 36.9286 9.92493C35.3224 9.92493 34.1021 8.85463 32.163 8.85463C30.2583 8.85463 28.2302 10.0187 26.9443 12.0093C25.1365 14.8124 25.4459 20.0827 28.3755 24.5717C29.424 26.178 30.8239 27.9842 32.6552 27.9998C34.2849 28.0155 34.7442 26.9545 36.952 26.9436C39.1598 26.9311 39.5786 28.0139 41.2051 27.9967C43.0379 27.9826 44.5145 25.9811 45.5629 24.3749C46.3145 23.2233 46.5942 22.6436 47.177 21.3436C42.9379 19.7296 42.2583 13.7015 46.4535 11.3874Z" fill="black"/>
</g>
</g>
<defs>
<filter id="filter0_d_30_696" x="0" y="0" width="73" height="39" filterUnits="userSpaceOnUse" color-interpolation-filters="sRGB">
<feFlood flood-opacity="0" result="BackgroundImageFix"/>
<feColorMatrix in="SourceAlpha" type="matrix" values="0 0 0 0 0 0 0 0 0 0 0 0 0 0 0 0 0 0 127 0" result="hardAlpha"/>
<feOffset dy="4"/>
<feGaussianBlur stdDeviation="2"/>
<feComposite in2="hardAlpha" operator="out"/>
<feColorMatrix type="matrix" values="0 0 0 0 0 0 0 0 0 0 0 0 0 0 0 0 0 0 0.25 0"/>
<feBlend mode="normal" in2="BackgroundImageFix" result="effect1_dropShadow_30_696"/>
<feBlend mode="normal" in="SourceGraphic" in2="effect1_dropShadow_30_696" result="shape"/>
</filter>
<clipPath id="clip0_30_696">
<rect width="25" height="25" fill="white" transform="translate(24 3)"/>
</clipPath>
</defs>
</svg>
