<svg width="19" height="22" viewBox="0 0 19 22" fill="none" xmlns="http://www.w3.org/2000/svg">
<path fill-rule="evenodd" clip-rule="evenodd" d="M4.76943 7.68335H13.5681C14.1722 7.68333 14.6935 7.68332 15.1228 7.71691C15.5759 7.75236 16.0265 7.83064 16.4602 8.04225C17.1071 8.35795 17.6331 8.86169 17.9628 9.48129C18.1837 9.8966 18.2655 10.3282 18.3025 10.7621C18.3376 11.1733 18.3375 11.6725 18.3375 12.251V17.3848C18.3375 17.9634 18.3376 18.4625 18.3025 18.8736C18.2655 19.3076 18.1837 19.7392 17.9628 20.1545C17.6331 20.7741 17.1071 21.2778 16.4602 21.5935C16.0265 21.8051 15.5759 21.8834 15.1228 21.9189C14.6935 21.9524 14.1722 21.9524 13.5681 21.9524H4.76942C4.16526 21.9524 3.64406 21.9524 3.21477 21.9189C2.76166 21.8834 2.311 21.8051 1.87734 21.5935C1.23039 21.2778 0.704394 20.7741 0.374754 20.1545C0.153794 19.7392 0.0720591 19.3076 0.0350391 18.8736C-3.42588e-05 18.4625 -1.79891e-05 17.9633 8.70318e-07 17.3847V12.251C-1.79891e-05 11.6724 -3.42566e-05 11.1733 0.0350391 10.7621C0.0720591 10.3282 0.153794 9.8966 0.374754 9.48129C0.704394 8.86169 1.23039 8.35795 1.87734 8.04225C2.311 7.83064 2.76166 7.75236 3.21477 7.71691C3.64404 7.68332 4.1653 7.68333 4.76943 7.68335ZM9.16876 14.2691C8.53579 14.2691 8.02267 14.7605 8.02267 15.3667V16.4643C8.02267 17.0705 8.53579 17.5619 9.16876 17.5619C9.80173 17.5619 10.3149 17.0705 10.3149 16.4643V15.3667C10.3149 14.7605 9.80173 14.2691 9.16876 14.2691Z" fill="#26457C"/>
<path fill-rule="evenodd" clip-rule="evenodd" d="M4.58435 4.39048C4.58435 1.96568 6.63685 0 9.16873 0C11.7006 0 13.7531 1.96568 13.7531 4.39048V7.68334H11.4609V4.39048C11.4609 3.17808 10.4347 2.19524 9.16873 2.19524C7.90279 2.19524 6.87654 3.17808 6.87654 4.39048V7.68334H4.58435V4.39048Z" fill="#26457C"/>
</svg>
