<svg width="339" height="19" viewBox="0 0 339 19" fill="none" xmlns="http://www.w3.org/2000/svg">
<path d="M129.16 15.208C128.403 15.208 127.691 15.0587 127.024 14.76C126.357 14.456 125.771 14.0373 125.264 13.504C124.757 12.9707 124.36 12.3547 124.072 11.656C123.784 10.952 123.64 10.2 123.64 9.4C123.64 8.6 123.784 7.85067 124.072 7.152C124.36 6.448 124.757 5.82933 125.264 5.296C125.771 4.76267 126.357 4.34667 127.024 4.048C127.691 3.744 128.403 3.592 129.16 3.592C129.923 3.592 130.637 3.744 131.304 4.048C131.971 4.34667 132.557 4.76267 133.064 5.296C133.571 5.82933 133.965 6.448 134.248 7.152C134.536 7.85067 134.68 8.6 134.68 9.4C134.68 10.2 134.536 10.952 134.248 11.656C133.965 12.3547 133.571 12.9707 133.064 13.504C132.557 14.0373 131.971 14.456 131.304 14.76C130.637 15.0587 129.923 15.208 129.16 15.208ZM129.16 13.544C129.693 13.544 130.192 13.4347 130.656 13.216C131.12 12.9973 131.528 12.6987 131.88 12.32C132.237 11.936 132.515 11.496 132.712 11C132.915 10.4987 133.016 9.96533 133.016 9.4C133.016 8.83467 132.915 8.30133 132.712 7.8C132.515 7.29867 132.237 6.85867 131.88 6.48C131.528 6.096 131.12 5.79733 130.656 5.584C130.192 5.36533 129.693 5.256 129.16 5.256C128.627 5.256 128.128 5.36533 127.664 5.584C127.2 5.80267 126.789 6.104 126.432 6.488C126.08 6.86667 125.803 7.30667 125.6 7.808C125.403 8.304 125.304 8.83467 125.304 9.4C125.304 9.97067 125.403 10.5067 125.6 11.008C125.803 11.504 126.08 11.944 126.432 12.328C126.789 12.7067 127.2 13.0053 127.664 13.224C128.128 13.4373 128.627 13.544 129.16 13.544ZM136.21 15V7H137.874V7.848C138.151 7.51733 138.493 7.256 138.898 7.064C139.303 6.872 139.741 6.776 140.21 6.776C140.509 6.776 140.805 6.816 141.098 6.896L140.434 8.576C140.226 8.496 140.018 8.456 139.81 8.456C139.458 8.456 139.135 8.544 138.842 8.72C138.549 8.89067 138.314 9.12267 138.138 9.416C137.962 9.70933 137.874 10.0347 137.874 10.392V15H136.21ZM146.069 15V3.8H147.733V13.336H152.557V15H146.069ZM157.121 15.208C156.385 15.208 155.713 15.0187 155.105 14.64C154.502 14.2613 154.019 13.7547 153.657 13.12C153.299 12.48 153.121 11.7733 153.121 11C153.121 10.4133 153.225 9.86667 153.433 9.36C153.641 8.848 153.926 8.4 154.289 8.016C154.657 7.62667 155.083 7.32267 155.569 7.104C156.054 6.88533 156.571 6.776 157.121 6.776C157.857 6.776 158.526 6.96533 159.129 7.344C159.737 7.72267 160.219 8.232 160.577 8.872C160.939 9.512 161.121 10.2213 161.121 11C161.121 11.5813 161.017 12.1253 160.809 12.632C160.601 13.1387 160.313 13.5867 159.945 13.976C159.582 14.36 159.158 14.6613 158.673 14.88C158.193 15.0987 157.675 15.208 157.121 15.208ZM157.121 13.544C157.563 13.544 157.961 13.4267 158.313 13.192C158.665 12.9573 158.942 12.648 159.145 12.264C159.353 11.8747 159.457 11.4533 159.457 11C159.457 10.536 159.35 10.1093 159.137 9.72C158.929 9.33067 158.649 9.02133 158.297 8.792C157.945 8.55733 157.553 8.44 157.121 8.44C156.683 8.44 156.286 8.55733 155.929 8.792C155.577 9.02667 155.297 9.33867 155.089 9.728C154.886 10.1173 154.785 10.5413 154.785 11C154.785 11.4747 154.891 11.904 155.105 12.288C155.318 12.672 155.601 12.9787 155.953 13.208C156.31 13.432 156.699 13.544 157.121 13.544ZM168.486 7H170.15V15.208C170.15 15.7573 170.032 16.264 169.798 16.728C169.568 17.192 169.256 17.592 168.862 17.928C168.467 18.2693 168.014 18.5333 167.502 18.72C166.995 18.9067 166.464 19 165.91 19C165.35 19 164.811 18.88 164.294 18.64C163.776 18.4053 163.32 18.0853 162.926 17.68C162.536 17.2747 162.246 16.816 162.054 16.304L163.582 15.616C163.688 15.9467 163.859 16.24 164.094 16.496C164.334 16.752 164.611 16.9547 164.926 17.104C165.246 17.2533 165.574 17.328 165.91 17.328C166.24 17.328 166.558 17.2747 166.862 17.168C167.171 17.0667 167.446 16.9227 167.686 16.736C167.931 16.5493 168.126 16.3253 168.27 16.064C168.414 15.8027 168.486 15.5173 168.486 15.208V13.856C168.224 14.2613 167.888 14.5893 167.478 14.84C167.067 15.0853 166.59 15.208 166.046 15.208C165.48 15.208 164.947 15.0987 164.446 14.88C163.944 14.6613 163.504 14.36 163.126 13.976C162.747 13.5867 162.451 13.1387 162.238 12.632C162.024 12.1253 161.918 11.5813 161.918 11C161.918 10.4187 162.024 9.87467 162.238 9.368C162.451 8.856 162.747 8.408 163.126 8.024C163.504 7.63467 163.944 7.33067 164.446 7.112C164.947 6.89333 165.48 6.784 166.046 6.784C166.59 6.784 167.067 6.90933 167.478 7.16C167.888 7.40533 168.224 7.73333 168.486 8.144V7ZM166.062 13.6C166.526 13.6 166.931 13.4827 167.278 13.248C167.624 13.008 167.894 12.6907 168.086 12.296C168.278 11.9013 168.374 11.4693 168.374 11C168.374 10.52 168.275 10.0853 168.078 9.696C167.886 9.30133 167.616 8.98667 167.27 8.752C166.923 8.512 166.52 8.392 166.062 8.392C165.614 8.392 165.203 8.50933 164.83 8.744C164.462 8.97867 164.168 9.29333 163.95 9.688C163.731 10.0827 163.622 10.52 163.622 11C163.622 11.48 163.731 11.9173 163.95 12.312C164.174 12.7067 164.47 13.0213 164.838 13.256C165.211 13.4853 165.619 13.6 166.062 13.6ZM171.929 7H173.593V15H171.929V7ZM172.777 5.84C172.521 5.84 172.307 5.75733 172.137 5.592C171.966 5.42667 171.881 5.21867 171.881 4.968C171.881 4.72267 171.966 4.51733 172.137 4.352C172.307 4.18133 172.518 4.096 172.769 4.096C173.014 4.096 173.222 4.18133 173.393 4.352C173.563 4.51733 173.649 4.72267 173.649 4.968C173.649 5.21867 173.563 5.42667 173.393 5.592C173.227 5.75733 173.022 5.84 172.777 5.84ZM182.644 9.984V15H180.98V10.392C180.98 10.0347 180.892 9.70933 180.716 9.416C180.546 9.12267 180.314 8.89067 180.02 8.72C179.732 8.544 179.407 8.456 179.044 8.456C178.692 8.456 178.37 8.544 178.076 8.72C177.783 8.89067 177.548 9.12267 177.372 9.416C177.196 9.70933 177.108 10.0347 177.108 10.392V15H175.444V7H177.108V7.848C177.386 7.51733 177.727 7.256 178.132 7.064C178.538 6.872 178.975 6.776 179.444 6.776C180.036 6.776 180.575 6.92 181.06 7.208C181.546 7.496 181.93 7.88267 182.212 8.368C182.5 8.85333 182.644 9.392 182.644 9.984ZM191.941 15H190.285L187.605 7H189.237L191.125 12.616L192.997 7H194.677L196.549 12.616L198.429 7H200.061L197.389 15H195.717L193.829 9.344L191.941 15ZM201.304 7H202.968V15H201.304V7ZM202.152 5.84C201.896 5.84 201.682 5.75733 201.512 5.592C201.341 5.42667 201.256 5.21867 201.256 4.968C201.256 4.72267 201.341 4.51733 201.512 4.352C201.682 4.18133 201.893 4.096 202.144 4.096C202.389 4.096 202.597 4.18133 202.768 4.352C202.938 4.51733 203.024 4.72267 203.024 4.968C203.024 5.21867 202.938 5.42667 202.768 5.592C202.602 5.75733 202.397 5.84 202.152 5.84ZM209.106 8.664H207.426L207.418 15H205.754L205.762 8.664H204.49V7H205.762L205.754 4.488H207.418L207.426 7H209.106V8.664ZM217.738 9.984V15H216.074V10.392C216.074 10.0347 215.986 9.70933 215.81 9.416C215.639 9.12267 215.407 8.89067 215.114 8.72C214.826 8.544 214.501 8.456 214.138 8.456C213.786 8.456 213.463 8.544 213.17 8.72C212.877 8.89067 212.642 9.12267 212.466 9.416C212.29 9.70933 212.202 10.0347 212.202 10.392V15H210.538V3H212.202V7.848C212.479 7.51733 212.821 7.256 213.226 7.064C213.631 6.872 214.069 6.776 214.538 6.776C215.13 6.776 215.669 6.92 216.154 7.208C216.639 7.496 217.023 7.88267 217.306 8.368C217.594 8.85333 217.738 9.392 217.738 9.984Z" fill="#26457C"/>
<g filter="url(#filter0_d_30_708)">
<line x1="4.00442" y1="7.50002" x2="117.004" y2="8.50003" stroke="#26457C"/>
</g>
<g filter="url(#filter1_d_30_708)">
<line x1="225" y1="8.5" x2="335" y2="8.5" stroke="#26457C"/>
</g>
<defs>
<filter id="filter0_d_30_708" x="0" y="7.00006" width="121.009" height="9.99994" filterUnits="userSpaceOnUse" color-interpolation-filters="sRGB">
<feFlood flood-opacity="0" result="BackgroundImageFix"/>
<feColorMatrix in="SourceAlpha" type="matrix" values="0 0 0 0 0 0 0 0 0 0 0 0 0 0 0 0 0 0 127 0" result="hardAlpha"/>
<feOffset dy="4"/>
<feGaussianBlur stdDeviation="2"/>
<feComposite in2="hardAlpha" operator="out"/>
<feColorMatrix type="matrix" values="0 0 0 0 0 0 0 0 0 0 0 0 0 0 0 0 0 0 0.25 0"/>
<feBlend mode="normal" in2="BackgroundImageFix" result="effect1_dropShadow_30_708"/>
<feBlend mode="normal" in="SourceGraphic" in2="effect1_dropShadow_30_708" result="shape"/>
</filter>
<filter id="filter1_d_30_708" x="221" y="8" width="118" height="9" filterUnits="userSpaceOnUse" color-interpolation-filters="sRGB">
<feFlood flood-opacity="0" result="BackgroundImageFix"/>
<feColorMatrix in="SourceAlpha" type="matrix" values="0 0 0 0 0 0 0 0 0 0 0 0 0 0 0 0 0 0 127 0" result="hardAlpha"/>
<feOffset dy="4"/>
<feGaussianBlur stdDeviation="2"/>
<feComposite in2="hardAlpha" operator="out"/>
<feColorMatrix type="matrix" values="0 0 0 0 0 0 0 0 0 0 0 0 0 0 0 0 0 0 0.25 0"/>
<feBlend mode="normal" in2="BackgroundImageFix" result="effect1_dropShadow_30_708"/>
<feBlend mode="normal" in="SourceGraphic" in2="effect1_dropShadow_30_708" result="shape"/>
</filter>
</defs>
</svg>
