<svg width="29" height="27" viewBox="0 0 29 27" fill="none" xmlns="http://www.w3.org/2000/svg">
<path fill-rule="evenodd" clip-rule="evenodd" d="M2.3951 5.84278C2 6.56473 2 7.50982 2 9.4V16.6C2 18.4902 2 19.4353 2.3951 20.1572C2.74264 20.7923 3.2972 21.3086 3.97928 21.6321C4.75471 22 5.76981 22 7.8 22H20.3667C22.3969 22 23.412 22 24.1874 21.6321C24.8695 21.3086 25.424 20.7923 25.7716 20.1572C26.1667 19.4353 26.1667 18.4902 26.1667 16.6V9.4C26.1667 7.50982 26.1667 6.56473 25.7716 5.84278C25.424 5.20773 24.8695 4.69143 24.1874 4.36785C23.412 4 22.3969 4 20.3667 4H7.8C5.76981 4 4.75471 4 3.97928 4.36785C3.2972 4.69143 2.74264 5.20773 2.3951 5.84278ZM8.72521 8.6973C8.1749 8.34583 7.42276 8.47625 7.04525 8.9886C6.66774 9.50095 6.80782 10.2012 7.35813 10.5527L12.0327 13.5383C13.2684 14.3275 14.8983 14.3275 16.134 13.5383L20.8085 10.5527C21.3588 10.2012 21.4989 9.50095 21.1214 8.9886C20.7439 8.47625 19.9918 8.34583 19.4415 8.6973L14.7669 11.6829C14.355 11.946 13.8117 11.946 13.3998 11.6829L8.72521 8.6973Z" fill="#26457C"/>
</svg>
